<svg xmlns="http://www.w3.org/2000/svg" version="1.1" xmlns:xlink="http://www.w3.org/1999/xlink" xmlns:svgjs="http://svgjs.dev/svgjs" width="128" height="128" viewBox="0 0 128 128"><g transform="matrix(0.8046875,0,0,0.8046875,11.805035377283701,17.01119437754788)"><svg viewBox="0 0 97 88" data-background-color="#ffffff" preserveAspectRatio="xMidYMid meet" height="116" width="128" xmlns="http://www.w3.org/2000/svg" xmlns:xlink="http://www.w3.org/1999/xlink"><g id="tight-bounds" transform="matrix(1,0,0,1,0.767541644404659,0.41358760047447163)"><svg viewBox="0 0 95.481 87.18890806691871" height="87.18890806691871" width="95.481"><g><svg viewBox="0 0 95.481 87.18890806691871" height="87.18890806691871" width="95.481"><g><svg viewBox="0 0 95.481 87.18890806691871" height="87.18890806691871" width="95.481"><g id="textblocktransform"><svg viewBox="0 0 95.481 87.18890806691871" height="87.18890806691871" width="95.481" id="textblock"><g><svg viewBox="0 0 95.481 87.18890806691871" height="87.18890806691871" width="95.481"><g><svg viewBox="0 0 95.481 87.18890806691871" height="87.18890806691871" width="95.481"><g><svg xmlns="http://www.w3.org/2000/svg" data-name="Layer 1" viewBox="10.9 14.199999982826581 78.3 71.50000001717342" x="0" y="0" height="87.18890806691871" width="95.481" class="icon-icon-0" data-fill-palette-color="accent" id="icon-0"><g data-name="Group" fill="#8156f5" data-fill-palette-color="accent"><path data-name="Compound Path" d="M63.3 14.2H20.4A9.5 9.5 0 0 0 10.9 23.7V76.7A9 9 0 0 0 19.9 85.7H80.2A9 9 0 0 0 89.2 76.7V36.3A9 9 0 0 0 80.2 27.3H72.3V23.3A9 9 0 0 0 63.3 14.2M20.4 20.2H63.3A3 3 0 0 1 66.3 23.2V27.2H20.4A3.5 3.5 0 0 1 20.4 20.2M83.2 36.2V76.8A3 3 0 0 1 80.2 79.8H19.8A3 3 0 0 1 16.8 76.8V32.6H80.2A3 3 0 0 1 83.2 36.3Z" fill="#8156f5" data-fill-palette-color="accent"></path><path data-name="Compound Path" d="M70 62.8A7 7 0 1 0 63 55.8 7 7 0 0 0 70 62.8M70 54.8A1 1 0 1 1 69 55.8 1 1 0 0 1 70 54.8" fill="#8156f5" data-fill-palette-color="accent"></path></g></svg></g></svg></g></svg></g></svg></g></svg></g><g></g></svg></g><defs></defs></svg><rect width="95.481" height="87.18890806691871" fill="none" stroke="none" visibility="hidden"></rect></g></svg></g></svg>